<svg width="16" height="16" viewBox="0 0 16 16" fill="none" xmlns="http://www.w3.org/2000/svg">
<g id="Group">
<path id="Vector" d="M14 2.66683H4.66667C4.31304 2.66683 3.97391 2.80731 3.72386 3.05735C3.47381 3.3074 3.33333 3.64654 3.33333 4.00016C3.33333 4.35378 3.47381 4.69292 3.72386 4.94297C3.97391 5.19302 4.31304 5.3335 4.66667 5.3335H14V14.0002C14 14.177 13.9298 14.3465 13.8047 14.4716C13.6797 14.5966 13.5101 14.6668 13.3333 14.6668H4.66667C3.95942 14.6668 3.28115 14.3859 2.78105 13.8858C2.28095 13.3857 2 12.7074 2 12.0002V4.00016C2 3.29292 2.28095 2.61464 2.78105 2.11454C3.28115 1.61445 3.95942 1.3335 4.66667 1.3335H13.3333C13.5101 1.3335 13.6797 1.40373 13.8047 1.52876C13.9298 1.65378 14 1.82335 14 2.00016V2.66683ZM3.33333 12.0002C3.33333 12.3538 3.47381 12.6929 3.72386 12.943C3.97391 13.193 4.31304 13.3335 4.66667 13.3335H12.6667V6.66683H4.66667C4.19855 6.66758 3.73856 6.54453 3.33333 6.31016V12.0002ZM13.3333 4.66683H4.66667C4.48986 4.66683 4.32029 4.59659 4.19526 4.47157C4.07024 4.34654 4 4.17697 4 4.00016C4 3.82335 4.07024 3.65378 4.19526 3.52876C4.32029 3.40373 4.48986 3.3335 4.66667 3.3335H13.3333V4.66683Z" fill="black"/>
</g>
</svg>
