<svg width="145" height="144" viewBox="0 0 145 144" fill="none" xmlns="http://www.w3.org/2000/svg">
<g id="Group">
<path id="Vector" d="M116.756 74.4959L53.162 116.892C52.7102 117.193 52.1854 117.365 51.6433 117.391C51.1013 117.417 50.5624 117.295 50.084 117.039C49.6056 116.783 49.2056 116.402 48.9267 115.936C48.6477 115.471 48.5003 114.939 48.5 114.396V29.6039C48.5003 29.0613 48.6477 28.5289 48.9267 28.0634C49.2056 27.5979 49.6056 27.2168 50.084 26.9607C50.5624 26.7045 51.1013 26.583 51.6433 26.6089C52.1854 26.6348 52.7102 26.8073 53.162 27.1079L116.756 69.5039C117.167 69.7779 117.504 70.1491 117.737 70.5845C117.97 71.0199 118.092 71.5061 118.092 71.9999C118.092 72.4938 117.97 72.98 117.737 73.4154C117.504 73.8508 117.167 74.222 116.756 74.4959Z" fill="black"/>
</g>
</svg>
