<svg width="196" height="196" viewBox="0 0 196 196" fill="none" xmlns="http://www.w3.org/2000/svg">
<g id="Group">
<path id="Vector" d="M158.238 101.397L71.6795 159.103C71.0646 159.512 70.3502 159.747 69.6124 159.782C68.8747 159.818 68.1411 159.652 67.49 159.303C66.8388 158.955 66.2944 158.436 65.9147 157.803C65.5351 157.169 65.3344 156.444 65.334 155.706V40.2943C65.3344 39.5557 65.5351 38.831 65.9147 38.1975C66.2944 37.5639 66.8388 37.0452 67.49 36.6966C68.1411 36.348 68.8747 36.1825 69.6124 36.2178C70.3502 36.2531 71.0646 36.4878 71.6795 36.897L158.238 94.6027C158.797 94.9756 159.256 95.4808 159.573 96.0734C159.89 96.6661 160.056 97.3278 160.056 98C160.056 98.6722 159.89 99.3339 159.573 99.9266C159.256 100.519 158.797 101.024 158.238 101.397Z" fill="black"/>
</g>
</svg>
